mtllib model.mtl
o model
v 1.000000 1.000000 -1.000000
v 1.000000 -1.000000 -1.000000
v 1.000000 1.000000 1.000000
v 1.000000 -1.000000 1.000000
v -1.000000 1.000000 -1.000000
v -1.000000 -1.000000 -1.000000
v -1.000000 1.000000 1.000000
v -1.000000 -1.000000 1.000000
vn -0.0000 -0.0000 1.0000
vn -1.0000 -0.0000 -0.0000
vn 1.0000 -0.0000 -0.0000
vn -0.0000 -0.0000 -1.0000
vt 1.000000 0.000000
vt 1.000000 1.000000
vt 0.000000 1.000000
vt 0.000000 0.000000
vt 0.000000 -0.000000
vt -0.000000 1.000000
vt 1.000000 -0.000000
vt -0.000000 0.000000
s 0
usemtl main
f 4/1/1 3/2/1 7/3/1 8/4/1
f 8/2/2 7/1/2 5/5/2 6/6/2
f 2/7/3 1/2/3 3/3/3 4/8/3
f 6/4/4 5/3/4 1/2/4 2/1/4