# Blender 4.0.2
# www.blender.org
mtllib model.mtl
o Cube
v -0.715152 0.126743 0.685017
v -0.715152 -0.596845 -1.048517
v -0.715152 -0.474164 -1.149933
v -0.715152 -0.318768 -1.197370
v -0.715152 -0.302410 -1.352766
v -0.715152 -0.006341 -1.109040
v -0.715152 0.026374 -0.770440
v -0.715152 0.132698 -0.677203
v -0.715152 -0.698261 -0.899664
v -0.715152 -0.748969 -0.760626
v -0.715152 -0.752241 -0.368047
v -0.715152 -0.950166 -0.299345
v -0.715152 -0.950166 0.269894
v -0.715152 -0.758784 0.356589
v -0.715152 -0.752241 0.700095
v -0.715152 -0.722797 0.821141
v -0.715152 -0.659003 0.956908
v -0.715152 -0.551044 1.086131
v -0.715152 -0.431635 1.158104
v -0.715152 -0.318768 1.197362
v -0.715152 -0.317132 1.333129
v -0.715152 -0.001433 1.102489
v -0.715152 0.021467 0.767161
v 0.736407 -0.752241 0.700095
v 0.736407 -0.722797 0.821141
v 0.736407 -0.758784 0.356589
v 0.736407 -0.950166 0.269894
v 0.736407 -0.950166 -0.299345
v 0.736407 -0.752241 -0.368047
v 0.736407 -0.748969 -0.760626
v 0.736407 -0.698261 -0.899664
v 0.736407 -0.596845 -1.048517
v 0.736407 -0.474164 -1.149933
v 0.736407 -0.318768 -1.197370
v 0.736407 -0.302410 -1.352766
v 0.736407 -0.006341 -1.109040
v 0.736407 0.026374 -0.770440
v 0.736407 0.132698 -0.677203
v 0.736407 0.126743 0.685017
v 0.736407 -0.659003 0.956908
v 0.736407 -0.551044 1.086131
v 0.736407 -0.431635 1.158104
v 0.736407 -0.318768 1.197362
v 0.736407 -0.317132 1.333129
v 0.736407 -0.001433 1.102489
v 0.736407 0.021467 0.767161
vn 1.0000 -0.0000 -0.0000
vn -1.0000 -0.0000 -0.0000
vn -0.0000 0.8264 0.5631
vn -0.0000 -0.6152 -0.7884
vn -0.0000 0.9717 -0.2364
vn -0.0000 0.9051 -0.4253
vn -0.0000 0.6371 0.7707
vn -0.0000 0.9998 -0.0190
vn -0.0000 0.7674 -0.6411
vn -0.0000 0.2920 0.9564
vn -0.0000 0.4126 -0.9109
vn -0.0000 0.5162 -0.8565
vn -0.0000 0.9945 0.1047
vn -0.0000 1.0000 -0.0000
vn -0.0000 0.3285 -0.9445
vn -0.0000 -0.6356 0.7721
vn -0.0000 0.3279 0.9447
vn -0.0000 0.9999 -0.0120
vn -0.0000 -0.9954 0.0962
vn -0.0000 1.0000 0.0083
vn -0.0000 -0.5899 -0.8075
vn -0.0000 -0.6593 0.7519
vn -0.0000 0.9395 0.3426
vn -0.0000 -0.9977 -0.0681
vn -0.0000 -1.0000 -0.0044
vt 0.000000 0.000000
s 0
usemtl second
f 15/1/1 14/1/1 13/1/1 12/1/1 11/1/1 10/1/1 9/1/1 2/1/1 3/1/1 4/1/1 5/1/1 6/1/1 7/1/1 8/1/1 1/1/1 23/1/1 22/1/1 21/1/1 20/1/1 19/1/1 18/1/1 17/1/1 16/1/1
f 24/1/2 25/1/2 40/1/2 41/1/2 42/1/2 43/1/2 44/1/2 45/1/2 46/1/2 39/1/2 38/1/2 37/1/2 36/1/2 35/1/2 34/1/2 33/1/2 32/1/2 31/1/2 30/1/2 29/1/2 28/1/2 27/1/2 26/1/2
f 2/1/3 9/1/3 31/1/3 32/1/3
f 23/1/4 1/1/4 39/1/4 46/1/4
f 15/1/5 16/1/5 25/1/5 24/1/5
f 16/1/6 17/1/6 40/1/6 25/1/6
f 3/1/7 2/1/7 32/1/7 33/1/7
f 14/1/8 15/1/8 24/1/8 26/1/8
f 17/1/9 18/1/9 41/1/9 40/1/9
f 4/1/10 3/1/10 33/1/10 34/1/10
f 13/1/11 14/1/11 26/1/11 27/1/11
f 18/1/12 19/1/12 42/1/12 41/1/12
f 5/1/13 4/1/13 34/1/13 35/1/13
f 12/1/14 13/1/14 27/1/14 28/1/14
f 19/1/15 20/1/15 43/1/15 42/1/15
f 6/1/16 5/1/16 35/1/16 36/1/16
f 11/1/17 12/1/17 28/1/17 29/1/17
f 20/1/18 21/1/18 44/1/18 43/1/18
f 7/1/19 6/1/19 36/1/19 37/1/19
f 10/1/20 11/1/20 29/1/20 30/1/20
f 21/1/21 22/1/21 45/1/21 44/1/21
f 8/1/22 7/1/22 37/1/22 38/1/22
f 9/1/23 10/1/23 30/1/23 31/1/23
f 22/1/24 23/1/24 46/1/24 45/1/24
f 1/1/25 8/1/25 38/1/25 39/1/25
o Cube.001
v -0.832375 -0.321681 1.122565
v -0.832375 -0.260340 -0.218303
v -0.832375 -0.173646 -0.157780
v -0.832375 -0.131116 -0.071086
v -0.832375 -0.129481 0.017244
v -0.832375 -0.163831 0.117025
v -0.832375 -0.239076 0.187362
v -0.832375 -0.327406 0.234799
v -0.832375 -0.320863 -0.228118
v -0.832375 -0.330677 -1.119599
v -0.832375 -0.463173 -1.072162
v -0.832375 -0.579311 -0.972382
v -0.832375 -0.666005 -0.843158
v -0.832375 -0.701992 -0.668133
v -0.832375 -0.705263 0.732065
v -0.832375 -0.661098 0.856382
v -0.832375 -0.561317 0.995421
v -0.832375 -0.432094 1.106651
v -0.832375 -0.324134 1.121373
v 0.856051 -0.260340 -0.218303
v 0.856051 -0.320863 -0.228118
v 0.856051 -0.173646 -0.157780
v 0.856051 -0.131116 -0.071086
v 0.856051 -0.129481 0.017244
v 0.856051 -0.163831 0.117025
v 0.856051 -0.239076 0.187362
v 0.856051 -0.327406 0.234799
v 0.856051 -0.321681 1.122565
v 0.856051 -0.330677 -1.119599
v 0.856051 -0.463173 -1.072162
v 0.856051 -0.579311 -0.972382
v 0.856051 -0.666005 -0.843158
v 0.856051 -0.701992 -0.668133
v 0.856051 -0.705263 0.732065
v 0.856051 -0.661098 0.856382
v 0.856051 -0.561317 0.995421
v 0.856051 -0.432094 1.106651
v 0.856051 -0.324134 1.121373
vn -1.0000 -0.0000 -0.0000
vn 1.0000 -0.0000 -0.0000
vn -0.0000 0.1601 -0.9871
vn -0.0000 -0.8124 0.5830
vn -0.0000 0.9999 -0.0110
vn -0.0000 0.5724 -0.8200
vn -0.0000 -0.6524 0.7579
vn -0.0000 -0.3371 -0.9415
vn -0.0000 0.8978 -0.4404
vn -0.0000 -0.1351 0.9908
vn -0.0000 -0.6517 -0.7585
vn -0.0000 0.9998 -0.0185
vn -0.0000 -0.4370 0.8994
vn -0.0000 -0.8304 -0.5571
vn -0.0000 0.9455 0.3255
vn -0.0000 -0.9795 -0.2014
vn -0.0000 0.6829 0.7305
vn -0.0000 -1.0000 -0.0023
vn -0.0000 0.4731 0.8810
vn -0.0000 -0.9423 0.3348
vn -0.0000 1.0000 -0.0064
vt 0.000000 0.000000
s 0
usemtl main
f 48/2/26 55/2/26 56/2/26 57/2/26 58/2/26 59/2/26 60/2/26 61/2/26 62/2/26 63/2/26 64/2/26 65/2/26 47/2/26 54/2/26 53/2/26 52/2/26 51/2/26 50/2/26 49/2/26
f 66/2/27 68/2/27 69/2/27 70/2/27 71/2/27 72/2/27 73/2/27 74/2/27 84/2/27 83/2/27 82/2/27 81/2/27 80/2/27 79/2/27 78/2/27 77/2/27 76/2/27 75/2/27 67/2/27
f 55/2/28 48/2/28 66/2/28 67/2/28
f 63/2/29 62/2/29 81/2/29 82/2/29
f 56/2/30 55/2/30 67/2/30 75/2/30
f 48/2/31 49/2/31 68/2/31 66/2/31
f 64/2/32 63/2/32 82/2/32 83/2/32
f 57/2/33 56/2/33 75/2/33 76/2/33
f 49/2/34 50/2/34 69/2/34 68/2/34
f 65/2/35 64/2/35 83/2/35 84/2/35
f 58/2/36 57/2/36 76/2/36 77/2/36
f 50/2/37 51/2/37 70/2/37 69/2/37
f 47/2/38 65/2/38 84/2/38 74/2/38
f 59/2/39 58/2/39 77/2/39 78/2/39
f 51/2/40 52/2/40 71/2/40 70/2/40
f 60/2/41 59/2/41 78/2/41 79/2/41
f 52/2/42 53/2/42 72/2/42 71/2/42
f 61/2/43 60/2/43 79/2/43 80/2/43
f 53/2/44 54/2/44 73/2/44 72/2/44
f 62/2/45 61/2/45 80/2/45 81/2/45
f 54/2/46 47/2/46 74/2/46 73/2/46
o model
v 0.426282 0.925264 0.426282
v 0.000000 0.925264 0.426282
v 0.426282 0.498982 0.426282
v 0.426282 0.925264 -0.000000
v 0.426282 0.729252 0.426282
v 0.000000 0.729252 0.426282
v 0.426282 0.729252 -0.000000
v 0.230270 0.925264 0.426282
v 0.230270 0.498982 0.426282
v 0.230270 0.925264 -0.000000
v 0.230270 0.729252 0.426282
v 0.426282 0.617108 0.426282
v 0.230270 0.617108 0.426282
v 0.120335 0.925264 0.426282
v 0.120335 0.729252 0.426282
v 0.426282 0.925264 0.226302
v 0.000000 0.925264 0.226302
v 0.426282 0.498982 0.226207
v 0.426282 0.729252 0.226302
v 0.230270 0.925264 0.226302
v 0.426282 0.617108 0.226207
v 0.120335 0.925264 0.226302
v 0.230265 0.729252 0.226299
v 0.230277 0.498982 0.226292
v 0.000000 0.729252 0.226290
v 0.230258 0.729252 -0.000000
v 0.426282 0.925264 -0.426282
v 0.000000 0.925264 -0.426282
v 0.426282 0.498982 -0.426282
v 0.426282 0.729252 -0.426282
v 0.000000 0.729252 -0.426282
v 0.230271 0.925264 -0.426282
v 0.230271 0.498982 -0.426282
v 0.230271 0.729252 -0.426282
v 0.426282 0.617108 -0.426282
v 0.230271 0.617108 -0.426282
v 0.120335 0.925264 -0.426282
v 0.120335 0.729252 -0.426282
v 0.426282 0.925264 -0.226302
v 0.000000 0.925264 -0.226302
v 0.426282 0.498982 -0.226207
v 0.426282 0.729252 -0.226302
v 0.230270 0.925264 -0.226302
v 0.426282 0.617108 -0.226207
v 0.120335 0.925264 -0.226302
v 0.230265 0.729252 -0.226299
v 0.230277 0.498982 -0.226292
v 0.000000 0.729252 -0.226290
v -0.426282 0.925264 0.426282
v -0.426282 0.498982 0.426282
v -0.426282 0.925264 -0.000000
v -0.426282 0.729252 0.426282
v -0.426282 0.729252 -0.000000
v -0.230271 0.925264 0.426282
v -0.230271 0.498982 0.426282
v -0.230270 0.925264 -0.000000
v -0.230271 0.729252 0.426282
v -0.426282 0.617108 0.426282
v -0.230271 0.617108 0.426282
v -0.120335 0.925264 0.426282
v -0.120335 0.729252 0.426282
v -0.426282 0.925264 0.226302
v -0.426282 0.498982 0.226207
v -0.426282 0.729252 0.226302
v -0.230270 0.925264 0.226302
v -0.426282 0.617108 0.226207
v -0.120335 0.925264 0.226302
v -0.230265 0.729252 0.226299
v -0.230277 0.498982 0.226292
v -0.230258 0.729252 -0.000000
v -0.426282 0.925264 -0.426282
v -0.426282 0.498982 -0.426282
v -0.426282 0.729252 -0.426282
v -0.230270 0.925264 -0.426282
v -0.230270 0.498982 -0.426282
v -0.230270 0.729252 -0.426282
v -0.426282 0.617108 -0.426282
v -0.230270 0.617108 -0.426282
v -0.120335 0.925264 -0.426282
v -0.120335 0.729252 -0.426282
v -0.426282 0.925264 -0.226302
v -0.426282 0.498982 -0.226207
v -0.426282 0.729252 -0.226302
v -0.230270 0.925264 -0.226302
v -0.426282 0.617108 -0.226207
v -0.120335 0.925264 -0.226302
v -0.230265 0.729252 -0.226299
v -0.230277 0.498982 -0.226292
v 0.426282 0.072700 0.426282
v 0.000000 0.072700 0.426282
v 0.426282 0.072700 0.000000
v 0.426282 0.268712 0.426282
v 0.000000 0.268712 0.426282
v 0.426282 0.268712 0.000000
v 0.230270 0.072700 0.426282
v 0.230270 0.072700 0.000000
v 0.230270 0.268712 0.426282
v 0.426282 0.380856 0.426282
v 0.230270 0.380856 0.426282
v 0.120335 0.072700 0.426282
v 0.120335 0.268712 0.426282
v 0.426282 0.072700 0.226302
v 0.000000 0.072700 0.226302
v 0.426282 0.268712 0.226302
v 0.230270 0.072700 0.226302
v 0.426282 0.380856 0.226207
v 0.120335 0.072700 0.226302
v 0.230265 0.268712 0.226299
v 0.000000 0.268712 0.226290
v 0.230258 0.268712 0.000000
v 0.426282 0.072700 -0.426282
v 0.000000 0.072700 -0.426282
v 0.426282 0.268712 -0.426282
v 0.000000 0.268712 -0.426282
v 0.230271 0.072700 -0.426282
v 0.230271 0.268712 -0.426282
v 0.426282 0.380856 -0.426282
v 0.230271 0.380856 -0.426282
v 0.120335 0.072700 -0.426282
v 0.120335 0.268712 -0.426282
v 0.426282 0.072700 -0.226302
v 0.000000 0.072700 -0.226302
v 0.426282 0.268712 -0.226302
v 0.230270 0.072700 -0.226302
v 0.426282 0.380856 -0.226207
v 0.120335 0.072700 -0.226302
v 0.230265 0.268712 -0.226299
v 0.000000 0.268712 -0.226290
v -0.426282 0.072700 0.426282
v -0.426282 0.072700 0.000000
v -0.426282 0.268712 0.426282
v -0.426282 0.268712 0.000000
v -0.230271 0.072700 0.426282
v -0.230270 0.072700 0.000000
v -0.230271 0.268712 0.426282
v -0.426282 0.380856 0.426282
v -0.230271 0.380856 0.426282
v -0.120335 0.072700 0.426282
v -0.120335 0.268712 0.426282
v -0.426282 0.072700 0.226302
v -0.426282 0.268712 0.226302
v -0.230270 0.072700 0.226302
v -0.426282 0.380856 0.226207
v -0.120335 0.072700 0.226302
v -0.230265 0.268712 0.226299
v -0.230258 0.268712 0.000000
v -0.426282 0.072700 -0.426282
v -0.426282 0.268712 -0.426282
v -0.230270 0.072700 -0.426282
v -0.230270 0.268712 -0.426282
v -0.426282 0.380856 -0.426282
v -0.230270 0.380856 -0.426282
v -0.120335 0.072700 -0.426282
v -0.120335 0.268712 -0.426282
v -0.426282 0.072700 -0.226302
v -0.426282 0.268712 -0.226302
v -0.230270 0.072700 -0.226302
v -0.426282 0.380856 -0.226207
v -0.120335 0.072700 -0.226302
v -0.230265 0.268712 -0.226299
v -0.122005 0.376977 0.122005
v -0.122005 0.620987 0.122005
v -0.122005 0.376977 -0.122005
v -0.122005 0.620987 -0.122005
v 0.122005 0.376977 0.122005
v 0.122005 0.620987 0.122005
v 0.122005 0.376977 -0.122005
v 0.122005 0.620987 -0.122005
vn 1.0000 -0.0000 -0.0000
vn -0.0000 -0.0000 1.0000
vn -0.0000 1.0000 -0.0000
vn -0.0000 -1.0000 -0.0000
vn -1.0000 -0.0000 -0.0000
vn -0.0003 0.0002 -1.0000
vn -0.0000 -0.0000 -1.0000
vn -0.0003 0.0002 1.0000
vn 0.0003 0.0002 -1.0000
vn 0.0003 0.0002 1.0000
vn -0.0003 -0.0002 -1.0000
vn -0.0003 -0.0002 1.0000
vn 0.0003 -0.0002 -1.0000
vn 0.0003 -0.0002 1.0000
vt 0.562500 0.442490
vt 0.625000 0.442490
vt 0.625000 0.500000
vt 0.562500 0.500000
vt 0.562500 0.592339
vt 0.625000 0.592339
vt 0.625000 0.625000
vt 0.562500 0.625000
vt 0.532062 0.442490
vt 0.532062 0.500000
vt 0.562500 0.562500
vt 0.532062 0.562500
vt 0.682510 0.500000
vt 0.750000 0.500000
vt 0.750000 0.562500
vt 0.682510 0.562500
vt 0.625000 0.562500
vt 0.500000 0.500000
vt 0.500000 0.562500
vt 0.500000 0.442490
vt 0.682510 0.592339
vt 0.682510 0.625000
vt 0.562500 0.375000
vt 0.625000 0.375000
vt 0.000000 0.000000
vt 0.375000 0.000000
vt 0.625000 0.000000
vt 0.625000 0.250000
vt 0.375000 0.250000
vt 0.375000 0.500000
vt 0.625000 0.750000
vt 0.375000 0.750000
vt 0.625000 1.000000
vt 0.375000 1.000000
vt 0.125000 0.500000
vt 0.125000 0.750000
vt 0.875000 0.500000
vt 0.875000 0.750000
s 0
usemtl main
f 103/3/47 100/4/47 85/5/47 89/6/47
f 99/7/48 98/8/48 86/9/48 90/10/48
f 105/11/47 103/3/47 89/6/47 96/12/47
f 96/12/48 89/6/48 95/13/48 97/14/48
f 100/15/49 88/16/49 94/17/49 104/18/49
f 89/6/48 85/5/48 92/19/48 95/13/48
f 87/20/48 96/12/48 97/14/48 93/21/48
f 102/22/47 105/11/47 96/12/47 87/20/47
f 95/13/48 92/19/48 98/8/48 99/7/48
f 92/19/49 104/18/49 106/23/49 98/8/49
f 85/5/49 100/15/49 104/18/49 92/19/49
f 98/8/49 106/23/49 101/24/49 86/9/49
f 91/25/47 88/26/47 100/4/47 103/3/47
f 102/22/50 87/20/50 93/21/50 108/27/50
f 93/21/51 97/14/51 95/13/51 107/27/51 108/27/51
f 103/27/49 107/27/49 95/27/49 89/27/49
f 102/22/52 108/27/52 107/27/52 103/27/52 105/11/52
f 95/27/50 99/27/50 90/27/50 109/27/50 107/27/50
f 101/24/51 109/27/51 90/27/51 86/9/51
f 104/18/53 107/27/53 109/27/53 101/24/53 106/23/53
f 110/27/50 91/27/50 103/27/50 107/27/50
f 94/17/51 110/27/51 107/27/51 104/18/51
f 126/3/47 114/6/47 111/5/47 123/4/47
f 122/7/53 115/10/53 112/9/53 121/8/53
f 128/11/47 119/12/47 114/6/47 126/3/47
f 119/12/53 120/14/53 118/13/53 114/6/53
f 123/15/49 127/18/49 94/17/49 88/16/49
f 114/6/53 118/13/53 116/19/53 111/5/53
f 113/20/53 117/21/53 120/14/53 119/12/53
f 125/22/47 113/20/47 119/12/47 128/11/47
f 118/13/53 122/7/53 121/8/53 116/19/53
f 116/19/49 121/8/49 129/23/49 127/18/49
f 111/5/49 116/19/49 127/18/49 123/15/49
f 121/8/49 112/9/49 124/24/49 129/23/49
f 91/25/47 126/3/47 123/4/47 88/26/47
f 125/22/50 131/27/50 117/21/50 113/20/50
f 117/21/51 131/27/51 130/27/51 118/13/51 120/14/51
f 126/27/49 114/27/49 118/27/49 130/27/49
f 125/22/54 128/11/54 126/27/54 130/27/54 131/27/54
f 118/27/50 130/27/50 132/27/50 115/27/50 122/27/50
f 124/24/51 112/9/51 115/27/51 132/27/51
f 127/18/48 129/23/48 124/24/48 132/27/48 130/27/48
f 110/27/50 130/27/50 126/27/50 91/27/50
f 94/17/51 127/18/51 130/27/51 110/27/51
f 148/3/51 136/6/51 133/5/51 146/4/51
f 145/7/48 90/10/48 86/9/48 144/8/48
f 150/11/51 142/12/51 136/6/51 148/3/51
f 142/12/48 143/14/48 141/13/48 136/6/48
f 146/15/49 149/18/49 140/17/49 135/16/49
f 136/6/48 141/13/48 138/19/48 133/5/48
f 134/20/48 139/21/48 143/14/48 142/12/48
f 147/22/51 134/20/51 142/12/51 150/11/51
f 141/13/48 145/7/48 144/8/48 138/19/48
f 138/19/49 144/8/49 151/23/49 149/18/49
f 133/5/49 138/19/49 149/18/49 146/15/49
f 144/8/49 86/9/49 101/24/49 151/23/49
f 137/25/51 148/3/51 146/4/51 135/26/51
f 147/22/50 153/27/50 139/21/50 134/20/50
f 139/21/47 153/27/47 152/27/47 141/13/47 143/14/47
f 148/27/49 136/27/49 141/27/49 152/27/49
f 147/22/55 150/11/55 148/27/55 152/27/55 153/27/55
f 141/27/50 152/27/50 109/27/50 90/27/50 145/27/50
f 149/18/53 151/23/53 101/24/53 109/27/53 152/27/53
f 154/27/50 152/27/50 148/27/50 137/27/50
f 140/17/47 149/18/47 152/27/47 154/27/47
f 167/3/51 165/4/51 155/5/51 157/6/51
f 164/7/53 163/8/53 112/9/53 115/10/53
f 169/11/51 167/3/51 157/6/51 161/12/51
f 161/12/53 157/6/53 160/13/53 162/14/53
f 165/15/49 135/16/49 140/17/49 168/18/49
f 157/6/53 155/5/53 158/19/53 160/13/53
f 156/20/53 161/12/53 162/14/53 159/21/53
f 166/22/51 169/11/51 161/12/51 156/20/51
f 160/13/53 158/19/53 163/8/53 164/7/53
f 158/19/49 168/18/49 170/23/49 163/8/49
f 155/5/49 165/15/49 168/18/49 158/19/49
f 163/8/49 170/23/49 124/24/49 112/9/49
f 137/25/51 135/26/51 165/4/51 167/3/51
f 166/22/50 156/20/50 159/21/50 172/27/50
f 159/21/47 162/14/47 160/13/47 171/27/47 172/27/47
f 167/27/49 171/27/49 160/27/49 157/27/49
f 166/22/56 172/27/56 171/27/56 167/27/56 169/11/56
f 160/27/50 164/27/50 115/27/50 132/27/50 171/27/50
f 168/18/48 171/27/48 132/27/48 124/24/48 170/23/48
f 154/27/50 137/27/50 167/27/50 171/27/50
f 140/17/47 154/27/47 171/27/47 168/18/47
f 188/3/47 176/6/47 173/5/47 186/4/47
f 185/7/48 177/10/48 174/9/48 184/8/48
f 190/11/47 182/12/47 176/6/47 188/3/47
f 182/12/48 183/14/48 181/13/48 176/6/48
f 186/15/50 189/18/50 180/17/50 175/16/50
f 176/6/48 181/13/48 179/19/48 173/5/48
f 87/20/48 93/21/48 183/14/48 182/12/48
f 102/22/47 87/20/47 182/12/47 190/11/47
f 181/13/48 185/7/48 184/8/48 179/19/48
f 179/19/50 184/8/50 191/23/50 189/18/50
f 173/5/50 179/19/50 189/18/50 186/15/50
f 184/8/50 174/9/50 187/24/50 191/23/50
f 178/25/47 188/3/47 186/4/47 175/26/47
f 93/21/51 108/27/51 192/27/51 181/13/51 183/14/51
f 188/27/50 176/27/50 181/27/50 192/27/50
f 102/22/57 190/11/57 188/27/57 192/27/57 108/27/57
f 181/27/49 192/27/49 193/27/49 177/27/49 185/27/49
f 187/24/51 174/9/51 177/27/51 193/27/51
f 189/18/53 191/23/53 187/24/53 193/27/53 192/27/53
f 194/27/49 192/27/49 188/27/49 178/27/49
f 180/17/51 189/18/51 192/27/51 194/27/51
f 207/3/47 205/4/47 195/5/47 197/6/47
f 204/7/53 203/8/53 196/9/53 198/10/53
f 209/11/47 207/3/47 197/6/47 201/12/47
f 201/12/53 197/6/53 200/13/53 202/14/53
f 205/15/50 175/16/50 180/17/50 208/18/50
f 197/6/53 195/5/53 199/19/53 200/13/53
f 113/20/53 201/12/53 202/14/53 117/21/53
f 125/22/47 209/11/47 201/12/47 113/20/47
f 200/13/53 199/19/53 203/8/53 204/7/53
f 199/19/50 208/18/50 210/23/50 203/8/50
f 195/5/50 205/15/50 208/18/50 199/19/50
f 203/8/50 210/23/50 206/24/50 196/9/50
f 178/25/47 175/26/47 205/4/47 207/3/47
f 117/21/51 202/14/51 200/13/51 211/27/51 131/27/51
f 207/27/50 211/27/50 200/27/50 197/27/50
f 125/22/58 131/27/58 211/27/58 207/27/58 209/11/58
f 200/27/49 204/27/49 198/27/49 212/27/49 211/27/49
f 206/24/51 212/27/51 198/27/51 196/9/51
f 208/18/48 211/27/48 212/27/48 206/24/48 210/23/48
f 194/27/49 178/27/49 207/27/49 211/27/49
f 180/17/51 194/27/51 211/27/51 208/18/51
f 225/3/51 224/4/51 213/5/51 215/6/51
f 223/7/48 222/8/48 174/9/48 177/10/48
f 227/11/51 225/3/51 215/6/51 220/12/51
f 220/12/48 215/6/48 219/13/48 221/14/48
f 224/15/50 214/16/50 218/17/50 226/18/50
f 215/6/48 213/5/48 217/19/48 219/13/48
f 134/20/48 220/12/48 221/14/48 139/21/48
f 147/22/51 227/11/51 220/12/51 134/20/51
f 219/13/48 217/19/48 222/8/48 223/7/48
f 217/19/50 226/18/50 228/23/50 222/8/50
f 213/5/50 224/15/50 226/18/50 217/19/50
f 222/8/50 228/23/50 187/24/50 174/9/50
f 216/25/51 214/26/51 224/4/51 225/3/51
f 139/21/47 221/14/47 219/13/47 229/27/47 153/27/47
f 225/27/50 229/27/50 219/27/50 215/27/50
f 147/22/59 153/27/59 229/27/59 225/27/59 227/11/59
f 219/27/49 223/27/49 177/27/49 193/27/49 229/27/49
f 226/18/53 229/27/53 193/27/53 187/24/53 228/23/53
f 230/27/49 216/27/49 225/27/49 229/27/49
f 218/17/47 230/27/47 229/27/47 226/18/47
f 240/3/51 232/6/51 231/5/51 239/4/51
f 238/7/53 198/10/53 196/9/53 237/8/53
f 242/11/51 235/12/51 232/6/51 240/3/51
f 235/12/53 236/14/53 234/13/53 232/6/53
f 239/15/50 241/18/50 218/17/50 214/16/50
f 232/6/53 234/13/53 233/19/53 231/5/53
f 156/20/53 159/21/53 236/14/53 235/12/53
f 166/22/51 156/20/51 235/12/51 242/11/51
f 234/13/53 238/7/53 237/8/53 233/19/53
f 233/19/50 237/8/50 243/23/50 241/18/50
f 231/5/50 233/19/50 241/18/50 239/15/50
f 237/8/50 196/9/50 206/24/50 243/23/50
f 216/25/51 240/3/51 239/4/51 214/26/51
f 159/21/47 172/27/47 244/27/47 234/13/47 236/14/47
f 240/27/50 232/27/50 234/27/50 244/27/50
f 166/22/60 242/11/60 240/27/60 244/27/60 172/27/60
f 234/27/49 244/27/49 212/27/49 198/27/49 238/27/49
f 241/18/48 243/23/48 206/24/48 212/27/48 244/27/48
f 230/27/49 244/27/49 240/27/49 216/27/49
f 218/17/47 241/18/47 244/27/47 230/27/47
usemtl second
f 245/28/51 246/29/51 248/30/51 247/31/51
f 247/31/53 248/30/53 252/5/53 251/32/53
f 251/32/47 252/5/47 250/33/47 249/34/47
f 249/34/48 250/33/48 246/35/48 245/36/48
f 247/37/50 251/32/50 249/34/50 245/38/50
f 252/5/49 248/39/49 246/40/49 250/33/49
