# Blender 4.0.2
# www.blender.org
mtllib model.mtl
o Cube
v -1.000000 1.000000 1.000000
v -1.000000 -1.000000 1.000000
v -1.000000 -1.000000 -1.000000
v 1.000000 1.000000 1.000000
v 1.000000 -1.000000 1.000000
v 1.000000 -1.000000 -1.000000
vn 1.0000 -0.0000 -0.0000
vn -0.0000 0.7071 -0.7071
vn -1.0000 -0.0000 -0.0000
vn -0.0000 -1.0000 -0.0000
vn -0.0000 -0.0000 1.0000
vt 1.000174 0.334118
vt 0.001330 0.333333
vt 1.002421 0.666393
vt 0.000423 0.000018
vt 0.000052 0.332692
vt 1.000891 0.333483
vt 0.999900 0.000100
vt 1.000039 0.333240
vt 1.004178 0.666371
vt -0.000031 0.331879
vt -0.000160 0.667014
vt 0.999740 0.667014
vt 1.000000 0.999900
vt 0.000100 0.999900
vt 0.000456 0.666964
vt 1.000139 0.666684
vt 0.999792 1.000022
vt 0.000625 0.999594
s 0
usemtl Material
f 5/1/1 6/2/1 4/3/1
f 6/4/2 3/5/2 1/6/2 4/7/2
f 2/8/3 1/9/3 3/10/3
f 5/11/4 2/12/4 3/13/4 6/14/4
f 5/15/5 4/16/5 1/17/5 2/18/5
