# Blender 4.3.0
# www.blender.org
mtllib model.mtl
o Mball.001
v 1.000000 -0.140000 -1.000000
v 1.000000 -0.140000 1.000000
v 0.920890 0.169884 -0.400000
v 0.920890 0.169884 0.400000
v -0.706494 0.252845 -0.400000
v 0.085721 0.364184 -0.400000
v -0.706494 0.252845 0.400000
v 0.085721 0.364184 0.400000
v 0.771726 0.228114 0.400000
v 0.771726 0.228114 -0.400000
v 1.000000 0.110270 -0.400000
v 1.000000 -0.135304 -1.000000
v 0.959491 -0.104779 -1.000000
v 1.000000 0.110270 0.400000
v 0.114831 0.157054 -1.000000
v -0.677383 0.045715 -1.000000
v 0.114831 0.157054 1.000000
v -0.677383 0.045715 1.000000
v 0.177565 0.144610 1.000000
v 0.326729 0.086380 1.000000
v 0.959491 -0.104779 1.000000
v -1.000000 -0.053884 0.785224
v -0.734258 0.016462 1.000000
v -0.745902 0.007583 1.000000
v -1.000000 -0.020886 0.731646
v -0.967834 -0.140000 1.000000
v -1.000000 -0.140000 0.957267
v -1.000000 0.101880 0.400000
v -1.000000 0.101880 -0.400000
v -1.000000 -0.020886 -0.731646
v -0.734258 0.016462 -1.000000
v -1.000000 -0.053884 -0.785224
v -1.000000 -0.140000 -0.957267
v -0.967834 -0.140000 -1.000000
v -0.745902 0.007583 -1.000000
v 1.000000 -0.135304 1.000000
v 0.922200 -0.090221 -1.000000
v 0.289438 0.100938 -1.000000
v 0.177565 0.144610 -1.000000
vn 0.2920 0.5245 -0.7998
vn 0.4564 0.8710 -0.1820
vn 0.8699 0.4823 -0.1029
vn 0.6947 0.2593 -0.6709
vn 0.4612 0.8671 0.1882
vn 0.8699 0.4823 0.1029
vn -0.1910 0.5891 -0.7852
vn -0.2960 0.9413 -0.1621
vn 0.0251 0.9864 -0.1621
vn 0.0212 0.6189 -0.7852
vn 0.0251 0.9864 0.1621
vn -0.2960 0.9413 0.1621
vn 0.0212 0.6189 0.7852
vn -0.1910 0.5891 0.7852
vn 0.1849 0.5072 0.8418
vn 0.2910 0.9343 0.2058
vn 0.1425 0.5735 0.8067
vn 0.2920 0.5368 0.7916
vn -0.3108 0.4516 0.8363
vn -0.2917 0.5211 0.8021
vn -0.8399 0.5013 0.2079
vn -0.8718 0.4332 0.2288
vn -0.8205 -0.3432 0.4572
vn -0.5732 -0.3332 0.7486
vn -0.8257 0.5543 0.1049
vn 0.2741 0.9430 -0.1887
vn -0.8257 0.5543 -0.1049
vn -0.8431 0.4928 -0.2152
vn -0.2951 0.5120 -0.8067
vn -0.8277 -0.3350 -0.4503
vn -0.8739 0.4215 -0.2421
vn -0.3196 0.4334 -0.8426
vn -0.5762 -0.3258 -0.7495
vn 0.6947 0.2593 0.6709
vn 0.1689 0.5241 -0.8347
vn 0.1864 0.5067 -0.8418
vn 0.1425 0.5735 -0.8067
vn -0.0000 -0.0000 1.0000
vn -0.0000 -1.0000 -0.0000
vn 1.0000 -0.0000 -0.0000
vn -0.0000 -0.0000 -1.0000
vt 0.000000 0.000000
vt 0.608782 0.000000
vt 0.578290 0.000000
vt 0.174359 0.000000
vt 0.143866 0.000000
vt 0.137420 0.000000
vt 0.016083 0.000000
vt 1.000000 0.000000
vt 1.000000 0.002348
vt 0.982221 0.000000
vt 0.679272 0.000000
vt 0.700000 0.120940
vt 0.865823 0.059557
vt 0.892612 0.043058
vt 0.978633 0.000000
vt 0.021367 0.000000
vt 0.107388 0.043058
vt 0.134177 0.059557
vt 0.300000 0.120940
vt 1.000000 1.000000
vt 0.016083 1.000000
vt 0.000000 0.002348
vt 1.000000 0.002348
vt 0.700000 0.125135
vt 0.300000 0.125135
vt 0.859789 1.000000
vt 0.016083 0.000000
vt 0.137420 0.000000
vt 0.143866 0.000000
vt 0.174359 0.000000
vt 0.608782 0.000000
vt 0.661650 0.000000
vt 0.964598 0.000000
s 1
usemtl Material.003
f 13/1/1 3/1/2 11/1/3 12/1/4
f 3/1/2 4/1/5 14/1/6 11/1/3
f 16/1/7 5/1/8 6/1/9 15/1/10
f 8/1/11 6/1/9 5/1/8 7/1/12
f 17/1/13 8/1/11 7/1/12 18/1/14
f 20/1/15 4/1/5 9/1/16 19/1/17
f 21/1/18 4/1/5 20/1/15
f 24/1/19 23/1/20 25/1/21 22/1/22 27/1/23 26/1/24
f 8/1/11 17/1/13 19/1/17 9/1/16
f 23/1/20 18/1/14 7/1/12 28/1/25 25/1/21
f 9/1/16 10/1/26 6/1/9 8/1/11
f 7/1/12 5/1/8 29/1/27 28/1/25
f 30/1/28 29/1/27 5/1/8 16/1/7 31/1/29
f 33/1/30 32/1/31 35/1/32 34/1/33
f 30/1/28 31/1/29 35/1/32 32/1/31
f 4/1/5 21/1/18 36/1/34 14/1/6
f 3/1/2 10/1/26 9/1/16 4/1/5
f 10/1/26 3/1/2 13/1/1 37/1/35 38/1/36
f 38/1/36 39/1/37 10/1/26
f 15/1/10 6/1/9 10/1/26 39/1/37
f 19/2/17 17/3/13 18/4/14 23/5/20 24/6/19 26/7/24 2/8/38 36/9/34 21/10/18 20/11/15
f 29/12/27 30/13/28 32/14/31 33/15/30 27/16/23 22/17/22 25/18/21 28/19/25
f 1/20/39 2/20/39 26/21/24 27/1/23 33/1/30 34/21/33
f 36/22/34 2/1/40 1/8/40 12/23/4 11/24/3 14/25/6
f 13/10/1 12/26/4 1/8/41 34/27/33 35/28/32 31/29/29 16/30/7 15/3/10 39/31/37 38/32/36 37/33/35
