mtllib model.mtl
o model
v 1.000000 1.000000 -1.000000
v 1.000000 -1.000000 -1.000000
v 1.000000 1.000000 1.000000
v 1.000000 -1.000000 1.000000
v -1.000000 1.000000 -1.000000
v -1.000000 -1.000000 -1.000000
v -1.000000 1.000000 1.000000
v -1.000000 -1.000000 1.000000
vn -0.0000 1.0000 -0.0000
vn -0.0000 -0.0000 1.0000
vn -1.0000 -0.0000 -0.0000
vn -0.0000 -0.0000 -1.0000
vt 0.000000 -0.000000
vt -0.000000 0.500000
vt 1.000000 0.500000
vt 1.000000 0.000000
vt 1.000000 1.000000
vt 0.000000 1.000000
vt 0.000000 0.500000
vt -0.000000 0.000000
vt 1.000000 -0.000000
s 0
usemtl main
f 1/1/1 5/2/1 7/3/1 3/4/1
f 4/3/2 3/5/2 7/6/2 8/7/2
f 8/8/3 7/7/3 5/3/3 6/9/3
f 6/7/4 5/6/4 1/5/4 2/3/4