# Blender 4.0.2
# www.blender.org
mtllib model.mtl
o Cube
v -0.385676 0.530748 0.858778
v -0.385676 0.980341 0.225052
v -0.385676 0.733124 0.238692
v -0.385676 0.693911 -0.337578
v -0.385676 0.855539 -0.536033
v -0.385676 0.239715 -0.734488
v -0.385676 0.223347 -0.984091
v -0.385676 -0.343375 -0.703799
v -0.385676 -0.519324 -0.869519
v -0.385676 -0.736193 -0.261879
v -0.385676 -0.983750 -0.233236
v -0.385676 -0.707550 0.341670
v -0.385676 -0.869178 0.513528
v -0.385676 -0.257446 0.716075
v -0.385676 -0.224711 0.982046
v -0.385676 0.331781 0.691524
v 0.407286 0.530748 0.858778
v 0.407286 0.980341 0.225052
v 0.407286 0.733124 0.238692
v 0.407286 0.693911 -0.337578
v 0.407286 0.855539 -0.536033
v 0.407286 0.239715 -0.734488
v 0.407286 0.223347 -0.984091
v 0.407286 -0.343375 -0.703799
v 0.407286 -0.519324 -0.869519
v 0.407286 -0.736193 -0.261879
v 0.407286 -0.983750 -0.233236
v 0.407286 -0.707550 0.341670
v 0.407286 -0.869178 0.513528
v 0.407286 -0.257446 0.716075
v 0.407286 -0.224711 0.982046
v 0.407286 0.331781 0.691524
vn -1.0000 -0.0000 -0.0000
vn 1.0000 -0.0000 -0.0000
vn -0.0000 -0.7285 -0.6851
vn -0.0000 0.3067 -0.9518
vn -0.0000 -0.3143 0.9493
vn -0.0000 0.9979 -0.0654
vn -0.0000 -0.9925 0.1222
vn -0.0000 -0.4433 -0.8964
vn -0.0000 0.4628 0.8865
vn -0.0000 0.6856 -0.7280
vn -0.0000 0.0551 0.9985
vn -0.0000 -0.6435 0.7655
vn -0.0000 -0.9418 -0.3361
vn -0.0000 0.9507 0.3103
vn -0.0000 -0.1149 -0.9934
vn -0.0000 0.8912 -0.4537
vn -0.0000 -0.9014 0.4330
vn -0.0000 0.7754 0.6315
vt 0.000000 0.000000
s 0
usemtl main
f 3/1/1 2/1/1 4/1/1 5/1/1 6/1/1 7/1/1 8/1/1 9/1/1 10/1/1 11/1/1 12/1/1 13/1/1 14/1/1 15/1/1 16/1/1 1/1/1
f 19/1/2 17/1/2 32/1/2 31/1/2 30/1/2 29/1/2 28/1/2 27/1/2 26/1/2 25/1/2 24/1/2 23/1/2 22/1/2 21/1/2 20/1/2 18/1/2
f 13/1/3 12/1/3 28/1/3 29/1/3
f 6/1/4 5/1/4 21/1/4 22/1/4
f 14/1/5 13/1/5 29/1/5 30/1/5
f 7/1/6 6/1/6 22/1/6 23/1/6
f 15/1/7 14/1/7 30/1/7 31/1/7
f 8/1/8 7/1/8 23/1/8 24/1/8
f 16/1/9 15/1/9 31/1/9 32/1/9
f 9/1/10 8/1/10 24/1/10 25/1/10
f 2/1/11 3/1/11 19/1/11 18/1/11
f 1/1/12 16/1/12 32/1/12 17/1/12
f 10/1/13 9/1/13 25/1/13 26/1/13
f 3/1/14 1/1/14 17/1/14 19/1/14
f 11/1/15 10/1/15 26/1/15 27/1/15
f 4/1/16 2/1/16 18/1/16 20/1/16
f 12/1/17 11/1/17 27/1/17 28/1/17
f 5/1/18 4/1/18 20/1/18 21/1/18
o Cube.001
v -0.464069 0.304857 0.493276
v -0.464069 0.563100 0.129268
v -0.464069 0.421101 0.137103
v -0.464069 0.398577 -0.193902
v -0.464069 0.491415 -0.307893
v -0.464069 0.137690 -0.421884
v -0.464069 0.128289 -0.565254
v -0.464069 -0.197232 -0.404257
v -0.464069 -0.298296 -0.499445
v -0.464069 -0.422863 -0.150421
v -0.464069 -0.565058 -0.133969
v -0.464069 -0.406411 0.196253
v -0.464069 -0.499249 0.294967
v -0.464069 -0.147875 0.411308
v -0.464069 -0.129072 0.564079
v -0.464069 0.190573 0.397206
v 0.567780 0.304857 0.493276
v 0.567780 0.563100 0.129268
v 0.567780 0.421101 0.137103
v 0.567780 0.398577 -0.193902
v 0.567780 0.491415 -0.307893
v 0.567780 0.137690 -0.421884
v 0.567780 0.128289 -0.565254
v 0.567780 -0.197232 -0.404257
v 0.567780 -0.298296 -0.499445
v 0.567780 -0.422863 -0.150421
v 0.567780 -0.565058 -0.133969
v 0.567780 -0.406411 0.196253
v 0.567780 -0.499249 0.294967
v 0.567780 -0.147875 0.411308
v 0.567780 -0.129072 0.564079
v 0.567780 0.190573 0.397206
vn -1.0000 -0.0000 -0.0000
vn 1.0000 -0.0000 -0.0000
vn -0.0000 -0.7285 -0.6851
vn -0.0000 0.3067 -0.9518
vn -0.0000 -0.3143 0.9493
vn -0.0000 0.9979 -0.0654
vn -0.0000 -0.9925 0.1222
vn -0.0000 -0.4433 -0.8964
vn -0.0000 0.4628 0.8865
vn -0.0000 0.6856 -0.7280
vn -0.0000 0.0551 0.9985
vn -0.0000 -0.6435 0.7655
vn -0.0000 -0.9418 -0.3361
vn -0.0000 0.9507 0.3103
vn -0.0000 -0.1149 -0.9934
vn -0.0000 0.8912 -0.4537
vn -0.0000 -0.9014 0.4330
vn -0.0000 0.7754 0.6315
vt 0.000000 0.000000
s 0
usemtl second
f 35/2/19 34/2/19 36/2/19 37/2/19 38/2/19 39/2/19 40/2/19 41/2/19 42/2/19 43/2/19 44/2/19 45/2/19 46/2/19 47/2/19 48/2/19 33/2/19
f 51/2/20 49/2/20 64/2/20 63/2/20 62/2/20 61/2/20 60/2/20 59/2/20 58/2/20 57/2/20 56/2/20 55/2/20 54/2/20 53/2/20 52/2/20 50/2/20
f 45/2/21 44/2/21 60/2/21 61/2/21
f 38/2/22 37/2/22 53/2/22 54/2/22
f 46/2/23 45/2/23 61/2/23 62/2/23
f 39/2/24 38/2/24 54/2/24 55/2/24
f 47/2/25 46/2/25 62/2/25 63/2/25
f 40/2/26 39/2/26 55/2/26 56/2/26
f 48/2/27 47/2/27 63/2/27 64/2/27
f 41/2/28 40/2/28 56/2/28 57/2/28
f 34/2/29 35/2/29 51/2/29 50/2/29
f 33/2/30 48/2/30 64/2/30 49/2/30
f 42/2/31 41/2/31 57/2/31 58/2/31
f 35/2/32 33/2/32 49/2/32 51/2/32
f 43/2/33 42/2/33 58/2/33 59/2/33
f 36/2/34 34/2/34 50/2/34 52/2/34
f 44/2/35 43/2/35 59/2/35 60/2/35
f 37/2/36 36/2/36 52/2/36 53/2/36
